<?xml version="1.0" encoding="UTF-8"?>
<svg id="Layer_1" data-name="Layer 1" xmlns="http://www.w3.org/2000/svg" xmlns:xlink="http://www.w3.org/1999/xlink" viewBox="0 0 105.58 37.34">
  <defs>
    <style>
      .cls-1 {
        fill: url(#linear-gradient-15);
      }

      .cls-2 {
        fill: url(#linear-gradient-13);
      }

      .cls-3 {
        fill: url(#linear-gradient-2);
      }

      .cls-4 {
        fill: url(#linear-gradient-10);
      }

      .cls-5 {
        fill: url(#linear-gradient-12);
      }

      .cls-6 {
        fill: url(#linear-gradient-4);
      }

      .cls-7 {
        fill: url(#linear-gradient-3);
      }

      .cls-8 {
        fill: url(#linear-gradient-5);
      }

      .cls-9 {
        fill: url(#linear-gradient-8);
      }

      .cls-10 {
        fill: url(#linear-gradient-14);
      }

      .cls-11 {
        fill: url(#linear-gradient-7);
      }

      .cls-12 {
        fill: url(#linear-gradient-9);
      }

      .cls-13 {
        fill: url(#linear-gradient-11);
      }

      .cls-14 {
        fill: url(#linear-gradient-6);
      }

      .cls-15 {
        fill: url(#linear-gradient);
      }
    </style>
    <linearGradient id="linear-gradient" x1="0" y1="17.39" x2="33.06" y2="17.39" gradientUnits="userSpaceOnUse">
      <stop offset="0" stop-color="#028ce2"/>
      <stop offset="1" stop-color="#1b1464"/>
    </linearGradient>
    <linearGradient id="linear-gradient-2" x1="8.3" y1="20.8" x2="27.75" y2="20.8" xlink:href="#linear-gradient"/>
    <linearGradient id="linear-gradient-3" x1="23.21" y1="12.34" x2="27.74" y2="12.34" xlink:href="#linear-gradient"/>
    <linearGradient id="linear-gradient-4" x1="61.38" y1="10.29" x2="74.24" y2="10.29" xlink:href="#linear-gradient"/>
    <linearGradient id="linear-gradient-5" x1="75.8" y1="10.38" x2="85.17" y2="10.38" xlink:href="#linear-gradient"/>
    <linearGradient id="linear-gradient-6" x1="39.09" y1="10.34" x2="46.86" y2="10.34" xlink:href="#linear-gradient"/>
    <linearGradient id="linear-gradient-7" x1="36.17" y1="10.27" x2="38.56" y2="10.27" xlink:href="#linear-gradient"/>
    <linearGradient id="linear-gradient-8" x1="86" y1="10.3" x2="98.85" y2="10.3" xlink:href="#linear-gradient"/>
    <linearGradient id="linear-gradient-9" x1="47.73" y1="10.31" x2="60.6" y2="10.31" xlink:href="#linear-gradient"/>
    <linearGradient id="linear-gradient-10" x1="52.2" y1="25.82" x2="54.45" y2="25.82" gradientUnits="userSpaceOnUse">
      <stop offset="0" stop-color="#93278f"/>
      <stop offset="1" stop-color="#f15a24"/>
    </linearGradient>
    <linearGradient id="linear-gradient-11" x1="55.86" x2="66.69" xlink:href="#linear-gradient-10"/>
    <linearGradient id="linear-gradient-12" x1="68.24" x2="78.79" xlink:href="#linear-gradient-10"/>
    <linearGradient id="linear-gradient-13" x1="36.17" y1="25.79" x2="50.09" y2="25.79" xlink:href="#linear-gradient-10"/>
    <linearGradient id="linear-gradient-14" x1="80.9" y1="25.9" x2="92.01" y2="25.9" xlink:href="#linear-gradient-10"/>
    <linearGradient id="linear-gradient-15" x1="93.23" y1="25.84" x2="105.58" y2="25.84" xlink:href="#linear-gradient-10"/>
  </defs>
  <g>
    <path class="cls-15" d="M27.6,34.78h-1.69v-7.24c0-1.62,1.76-2.91,2.65-4.1C36.92,12.14,25.59-2.29,12.37,2.74,5.91,5.2,3.02,11.53,3.93,18.22l-2.08,4.83c-.1,1,1.2.81,1.88,1.2.73.43.97,1.1,1.02,1.9.07,1.19-.12,2.88.06,4.05.09.58.49.86,1.04.93,1.32.15,4.42.13,5.78,0,.87-.08,1.23-.48,1.33-1.34.12-1.07.13-3.87,0-4.93-.11-.89-1.63-2.26-2.32-2.88-.22-.2-1.4-1.3-1.49-1.34-.3-.13-.58.1-.9.08-2.88-.18-2.88-4.08-.54-4.47,2.08-.35,3.15,1.31,2.64,3.2.84,1.14,3.8,3.23,4.09,4.5.22.94.18,5.33.06,6.41s-.79,1.9-1.83,2.25c-1.21.41-5.48.35-6.82.21-3.7-.37-2.67-4.42-2.95-7.03-1.44-.57-3.36-.89-2.82-2.96.34-1.33,1.88-3.42,2.15-4.74.21-1.01-.2-3.06-.11-4.33C2.98,2.41,15.98-3.29,25.58,1.98c8.2,4.5,9.78,15.53,4.12,22.74-.53.67-2.11,2.02-2.11,2.82v7.24Z"/>
    <g>
      <path class="cls-3" d="M18.88,24.8l4.58-4.65c.11-.22-.19-.58-.22-.91-.36-3.38,4.94-3.59,4.49-.02-.2,1.58-1.7,1.87-3.02,2.04l-5.76,5.92-.09,9.9c-.14.43-1.29.16-1.67.23v-18.64l-5.91-5.77c-1.18.09-2.48-.21-2.86-1.5-.89-3.07,3.43-4.4,4.26-1.44.23.82.08,1.1-.07,1.89,1.42,1.17,2.73,3.07,4.15,4.15.14.11.18.27.42.21v-7.1c-1.56-.68-2.12-2.81-.94-4.1,2.04-2.22,5.58.95,3.26,3.47-.12.13-.64.43-.64.49v15.83Z"/>
      <path class="cls-7" d="M25.03,10.06c3.18-.59,3.71,4.25.8,4.6-3.07.37-3.56-4.09-.8-4.6Z"/>
    </g>
  </g>
  <g>
    <path class="cls-6" d="M73.91,15.9h-1.6c-.12,0-.24-.07-.3-.18l-1.03-2.01c-.06-.11-.17-.18-.29-.18l-5.8-.03c-.13,0-.24.07-.3.19l-1.03,2.09c-.06.12-.18.19-.31.19l-1.54-.05c-.24,0-.39-.25-.29-.47l4.58-10.25s.02-.05.04-.07c.52-.64,2.76-.69,3.37-.09.03.03.04.06.06.09l4.76,10.31c.1.22-.06.47-.3.47ZM69.41,11.4c.24,0,.4-.25.3-.47-.5-1.14-.96-2.46-1.54-3.48-.04-.06-.09-.16-.15-.25-.14-.22-.47-.19-.58.05l-1.67,3.68c-.1.22.06.47.3.47h3.33Z"/>
    <path class="cls-8" d="M75.8,4.72h1.7c.19-.01.35.14.35.33v8.02c0,.08.13.32.24.49.06.09.16.15.28.15h6.47c.18,0,.33.15.33.33v1.52c0,.16-.11.29-.26.33-.16.04-.33.07-.51.08-1.37.11-6.29.17-7.39-.22-.56-.2-.94-.7-1.15-1.24"/>
    <path class="cls-14" d="M46.86,4.86l-5.11,5.24c-.13.13-.13.34,0,.47l4.69,4.78c.21.21.06.57-.24.57h-2.14c-.07,0-.14-.02-.2-.07-.69-.53-4.03-3.96-4.33-4.37-.44-.6-.59-1.35-.32-2.05.02-.04.04-.08.08-.11l4.52-4.52"/>
    <path class="cls-11" d="M38.22,15.9h-1.72c-.18,0-.33-.15-.33-.33V5.02c0-.19.15-.33.34-.33.54,0,1.41-.14,1.82,0,.13.05.22.17.22.31l.02,10.57c0,.18-.15.33-.33.33Z"/>
    <path class="cls-9" d="M96.43,15.7l-.8-1.9c-.05-.12-.17-.2-.3-.2l-5.82-.09c-.13,0-.26.08-.31.2l-.91,2.1c-.06.13-.18.21-.32.2l-1.65-.08c-.23-.01-.38-.25-.29-.47l4.53-10.09c.43-.89,2.54-.93,3.26-.48.04.03.08.07.1.11,1.87,3.34,3.25,6.97,4.9,10.43.11.22-.05.48-.3.48h-1.78c-.13,0-.25-.08-.31-.2ZM94.69,11.33l-2.13-4.08c-.13-.24-.49-.24-.6.01-.04.08-.07.16-.11.24-.36.7-1.51,3.18-1.66,3.83"/>
    <path class="cls-12" d="M60.26,15.9h-1.6c-.12,0-.24-.07-.3-.18l-1.03-2.01c-.06-.11-.17-.18-.29-.18l-5.8-.03c-.13,0-.25.08-.31.2l-.91,2.11c-.06.13-.18.21-.32.2l-1.65-.08c-.23-.01-.38-.26-.29-.47l4.6-10.15c.48-.93,2.86-.88,3.45-.18.02.02.03.05.04.07l4.71,10.23c.1.22-.06.47-.3.47ZM54.32,6.99c-.32-.42-.65.36-.78.62-.54,1.06-.91,2.23-1.4,3.33-.1.22.06.47.3.47h3.77"/>
  </g>
  <g>
    <rect class="cls-4" x="52.2" y="20.4" width="2.25" height="10.83"/>
    <polygon class="cls-13" points="66.69 20.4 66.69 22.51 62.47 22.51 62.47 31.24 60.08 31.24 60.08 22.51 55.86 22.51 55.86 20.55 66.69 20.4"/>
    <polygon class="cls-5" points="70.49 20.55 70.49 24.77 76.54 24.77 76.54 20.4 78.79 20.4 78.79 31.24 76.54 31.24 76.54 27.02 70.49 27.02 70.49 31.24 68.24 31.24 68.29 20.55 70.49 20.55"/>
    <path class="cls-2" d="M36.17,22.16c.22-1.8,1.55-2,3.16-1.75.49.08.86.48,1.07.9,1.03,2.08,1.49,5.09,2.46,7.25.07.16,0,.36.27.28.42-.11,2.37-7.21,3.09-8.03,1.01-.84,3.88-.64,3.88,1.06v9.36h-2.25v-8.72c-.21.03-.27.26-.35.42-1.09,2.25-1.62,5.14-2.69,7.44-.67,1.15-2.75,1.18-3.41.06-.95-2.27-1.57-4.68-2.45-6.98-.1-.25-.19-.9-.53-.81v8.58h-2.25v-9.07Z"/>
    <path class="cls-10" d="M89.4,20.56c1.31.16,2.21,1.02,2.47,2.32.13.68.11,2.5-.05,3.16-.14.59-.93,1.26-1.48,1.47-.23.09-.84-.04-.71.28l2.39,3.45h-2.6l-2.18-3.38h-3.94v3.38h-2.39v-10.68M83.15,25.75h5.13s.86-.19.91-.21c.68-.32.8-2.7-.21-2.88-.7-.13-2.41-.14-3.22-.15-.39,0-2.4-.05-2.54.14l-.07,3.11Z"/>
    <path class="cls-1" d="M103.25,31.02l-.77-1.83c-.05-.12-.16-.19-.29-.2l-5.59-.09c-.13,0-.25.07-.3.19l-.88,2.02c-.05.12-.18.2-.31.19l-1.59-.08c-.22-.01-.37-.25-.28-.45l4.35-9.7c.42-.86,2.45-.89,3.14-.46.04.03.08.07.1.11,1.8,3.21,3.12,6.7,4.71,10.02.1.21-.05.46-.29.46h-1.71c-.13,0-.24-.08-.29-.2ZM101.58,26.83l-2.05-3.92c-.12-.24-.47-.23-.57.01-.03.08-.07.16-.1.23-.35.67-1.45,3.05-1.6,3.68"/>
  </g>
</svg>